# xmcd
#
# Track frame offsets: 
#        150
#        15498
#        27627
#        39023
#        52018
#        65910
#        76971
#        92785
#        104197
#        120101
#        134160
#        147300
#        157677
#
# Disc length: 2233 seconds
#
# Revision: 0
# Processed by: cddbd v1.5.2PL0 Copyright (c) Steve Scherf et al.
# Submitted via: ExactAudioCopyFreeDBPlugin 1.0
#
DISCID=af08b70d
DTITLE=Billie Jo Spears - Gold
DYEAR=1993
DGENRE=Country
TTITLE0=Blanket On The Ground
TTITLE1=What I've Got In Mind
TTITLE2=Misty Blue
TTITLE3=It Coulda Been Me
TTITLE4=Which Way Are You Going Billy
TTITLE5=Tennessee Waltz
TTITLE6=Queen Of The Silver Dollar
TTITLE7=Silver Threads and Golden Needles
TTITLE8=I Fall To Pieces
TTITLE9=Cryimg Time
TTITLE10=Fever
TTITLE11=I'm So Lonesome I Could Cry
TTITLE12=I Stayed Long Enough
EXTD=
EXTT0=
EXTT1=
EXTT2=
EXTT3=
EXTT4=
EXTT5=
EXTT6=
EXTT7=
EXTT8=
EXTT9=
EXTT10=
EXTT11=
EXTT12=
PLAYORDER=
